<svg viewBox="0 0 30 30" fill="none" xmlns="http://www.w3.org/2000/svg">
<path d="M5.70789 25.6344C4.952 25.7962 4.3062 25.0758 4.54933 24.3421L5.21695 22.3271C5.31422 22.0335 5.26681 21.7133 5.10976 21.4469C4.12478 19.7758 3.78892 17.8537 4.16477 15.9856C4.57213 13.9609 5.78784 12.1374 7.58585 10.8541C9.38386 9.57082 11.6418 8.91508 13.9399 9.00882C16.238 9.10256 18.4198 9.9394 20.0797 11.3637C21.7396 12.7881 22.7647 14.703 22.9642 16.7525C23.1638 18.8019 22.5243 20.8465 21.1646 22.5059C19.805 24.1654 17.8177 25.3268 15.5723 25.7744C13.442 26.1989 11.2169 25.9535 9.27022 25.0851C9.06584 24.9939 8.83832 24.9644 8.61947 25.0112L5.70789 25.6344Z" fill="#274486"/>
<path d="M15.5 4C15.5 4.39782 15.658 4.77936 15.9393 5.06066C16.2206 5.34196 16.6022 5.5 17 5.5C16.6022 5.5 16.2206 5.65804 15.9393 5.93934C15.658 6.22064 15.5 6.60218 15.5 7C15.5 6.60218 15.342 6.22064 15.0607 5.93934C14.7794 5.65804 14.3978 5.5 14 5.5C14.3978 5.5 14.7794 5.34196 15.0607 5.06066C15.342 4.77936 15.5 4.39782 15.5 4Z" stroke="#274486" stroke-width="2" stroke-linecap="round" stroke-linejoin="round"/>
<path d="M24 6C24 6.79565 24.3161 7.55871 24.8787 8.12132C25.4413 8.68393 26.2044 9 27 9C26.2044 9 25.4413 9.31607 24.8787 9.87868C24.3161 10.4413 24 11.2044 24 12C24 11.2044 23.6839 10.4413 23.1213 9.87868C22.5587 9.31607 21.7956 9 21 9C21.7956 9 22.5587 8.68393 23.1213 8.12132C23.6839 7.55871 24 6.79565 24 6Z" fill="#274486" stroke="#274486" stroke-width="2" stroke-linecap="round" stroke-linejoin="round"/>
</svg>
